PathFileType	4	(X/Y/Z)	C:\Users\Basilio\Documents\Thesis Gigler\squatting_fais\c3dfiles\019\SJ_pre1\markers_experimental.trc
DataRate	CameraRate	NumFrames	NumMarkers	Units	OrigDataRate	OrigDataStartFrame	OrigNumFrames
200.000000	200.000000	4	59	mm	200.000000	586	1173
Frame#	Time	FHD			LBHD			RBHD			C7			T10			CLAV			LSHO			LUUPA			LMUPA			LDUPA			LLEP			LMEP			LRAD			LUL			LRFIN			RSHO			RUPA1			RMUPA			RDUPA			RLEP			RMEP			RRAD			RUL			RUFIN			LASI			RASI			USACR			LSACR			RSACR			LTHI1			LTHI2			LTHI3			LTHI4			LLFC			LTIB1			LTIB2			LTIB3			LTIB4			LLMAL			LMMAL			LHEE			LMT1			LMT2			LMT5			RTHI			RTHI2			RTHI3			RTHI4			RLFC			RTIB1			RTIB2			RTIB3			RTIB4			RLMAL			RMMAL			RHEE			RMT1			RMT2			RMT5			
		X1	Y1	Z1	X2	Y2	Z2	X3	Y3	Z3	X4	Y4	Z4	X5	Y5	Z5	X6	Y6	Z6	X7	Y7	Z7	X8	Y8	Z8	X9	Y9	Z9	X10	Y10	Z10	X11	Y11	Z11	X12	Y12	Z12	X13	Y13	Z13	X14	Y14	Z14	X15	Y15	Z15	X16	Y16	Z16	X17	Y17	Z17	X18	Y18	Z18	X19	Y19	Z19	X20	Y20	Z20	X21	Y21	Z21	X22	Y22	Z22	X23	Y23	Z23	X24	Y24	Z24	X25	Y25	Z25	X26	Y26	Z26	X27	Y27	Z27	X28	Y28	Z28	X29	Y29	Z29	X30	Y30	Z30	X31	Y31	Z31	X32	Y32	Z32	X33	Y33	Z33	X34	Y34	Z34	X35	Y35	Z35	X36	Y36	Z36	X37	Y37	Z37	X38	Y38	Z38	X39	Y39	Z39	X40	Y40	Z40	X41	Y41	Z41	X42	Y42	Z42	X43	Y43	Z43	X44	Y44	Z44	X45	Y45	Z45	X46	Y46	Z46	X47	Y47	Z47	X48	Y48	Z48	X49	Y49	Z49	X50	Y50	Z50	X51	Y51	Z51	X52	Y52	Z52	X53	Y53	Z53	X54	Y54	Z54	X55	Y55	Z55	X56	Y56	Z56	X57	Y57	Z57	X58	Y58	Z58	X59	Y59	Z59	

587	2.93	30.19255065917969	1315.122314453125	-877.0032348632815	-108.0123977661133	1263.7568359375	-1010.16796875	-98.77516174316409	1256.588989257813	-869.914733886719	-135.5737762451172	1133.55810546875	-939.7210083007815	-324.2811279296876	924.0669555664065	-929.5236816406252	-26.0097770690918	1033.14453125	-937.9997558593752	-73.03442382812501	1092.637573242188	-1088.400390625	-171.5789794921875	994.7730712890627	-1193.649169921875	-191.2249450683594	955.0796508789065	-1175.01708984375	-219.3647918701172	961.2362060546877	-1226.474853515625	-285.5979309082032	947.8269042968752	-1279.178833007813	-345.0537414550782	983.7285766601565	-1254.056884765625	-394.6211853027345	769.5086059570315	-1134.623291015625	-390.2653198242189	731.9741210937501	-1190.9951171875	-358.3495788574219	737.1904296875001	-1100.046264648438	-72.17088317871095	1101.830444335938	-804.521667480469	-201.941635131836	1059.192626953125	-665.5343017578126	-198.0078125000001	1006.853942871094	-661.1875610351564	-242.446517944336	1021.586364746094	-621.9088745117189	-291.3711547851563	963.078796386719	-588.5034790039064	-343.4548339843751	996.6549072265627	-614.1770019531251	-390.684295654297	766.4314575195314	-719.0247802734376	-368.3222656250001	729.6527099609376	-666.6819458007814	-351.2856140136719	731.4838867187501	-759.6808471679689	-327.0829772949219	698.5872192382814	-1027.730102539063	-326.7750244140626	699.7091674804689	-827.3691406250002	-425.8474731445314	828.5831298828127	-927.865661621094	-450.4672851562501	804.0595703125002	-953.8774414062502	-447.912078857422	804.3782958984377	-897.087341308594	-317.3669128417969	540.6124267578126	-1150.664428710938	-235.2810821533204	526.1051025390626	-1171.776733398438	-204.5254669189454	559.0187988281251	-1157.54248046875	-208.4872131347657	470.7425231933595	-1177.801635742188	-148.8593292236328	408.4210510253907	-1175.4130859375	-141.0745697021485	267.5105895996094	-1156.828857421875	-221.6258697509766	262.3994140625001	-1194.779418945313	-187.4615020751953	240.1416473388672	-1179.677490234375	-225.6910247802735	170.161376953125	-1140.76318359375	-360.8273010253907	103.7610168457032	-1153.064819335938	-324.7275390625001	96.42411804199222	-1071.502319335938	-417.9636230468751	50.027645111084	-1091.4658203125	-209.7638702392579	52.62918853759767	-1130.132934570313	-217.8784179687501	55.14918518066408	-1169.208862304688	-270.3679809570313	35.24613571166993	-1212.446166992188	-356.4085083007813	605.9419555664064	-708.9284057617189	-290.8694763183594	603.8239746093751	-702.8761596679689	-273.7240905761719	622.9459838867189	-724.0324707031251	-246.0772094726563	541.1816406250001	-674.5059204101564	-153.325180053711	418.0105590820314	-666.7211303710939	-162.3876495361328	239.2251434326172	-701.5484008789064	-263.8312072753907	209.4058532714844	-668.0604248046876	-227.2300415039063	188.113998413086	-689.2707519531251	-245.2619628906251	150.875732421875	-731.8417358398439	-351.0971679687501	105.8382873535157	-702.8613281250001	-311.6173400878907	96.38970184326175	-774.5825195312502	-403.9462890625001	52.60730743408205	-766.5674438476564	-202.7286834716797	50.4851417541504	-708.1509399414064	-215.0647583007813	56.4384231567383	-663.9130859375001	-272.6036071777344	40.56620788574219	-627.4177856445314	
588	2.935	24.72253990173341	1324.869873046875	-873.8151855468752	-111.3437652587891	1278.592529296875	-1010.051086425781	-103.1760711669922	1271.800170898438	-869.892517089844	-139.0807342529297	1147.168334960938	-940.0190429687502	-323.7727355957032	933.547058105469	-929.821228027344	-27.27207565307618	1048.90087890625	-937.9967041015627	-75.44717407226564	1107.743408203125	-1088.4228515625	-172.6575622558594	1008.012268066406	-1193.466674804688	-191.6063385009766	968.043884277344	-1174.659912109375	-220.0361785888672	973.470153808594	-1225.920043945313	-285.8723449707032	958.959167480469	-1278.68505859375	-345.7189941406251	993.6121215820315	-1253.229736328125	-391.5193481445314	778.4156494140627	-1134.523803710938	-387.0970764160157	741.3146362304689	-1191.123901367188	-355.2245483398438	746.0401000976564	-1100.362426757813	-75.4425506591797	1117.44091796875	-805.1128540039065	-205.1269989013672	1072.920532226563	-666.3751220703126	-200.0374755859376	1021.011169433594	-661.4708862304689	-244.6788940429688	1034.597290039063	-622.6893310546876	-292.7000427246094	975.1662597656252	-589.0269165039064	-345.8630676269532	1008.051696777344	-615.5006103515626	-386.0025329589845	775.8402099609377	-720.0418701171876	-363.8030700683594	740.0737915039064	-667.3422851562501	-346.7018127441407	739.9500732421876	-760.6203002929689	-323.2951660156251	707.7691650390626	-1027.936401367188	-323.4028320312501	708.5078735351564	-827.9487304687502	-423.276580810547	836.5858154296877	-928.2048950195315	-447.4892578125001	811.587585449219	-954.136657714844	-445.3094482421876	812.348815917969	-897.1964111328127	-314.9033508300782	544.9318237304689	-1150.765380859375	-233.1224670410157	528.8616333007814	-1172.042358398438	-201.8411560058594	561.3399047851564	-1158.473999023438	-207.2578277587891	473.0188903808595	-1177.5107421875	-148.8547668457032	409.7304992675782	-1175.725830078125	-140.8098449707032	268.4078979492188	-1157.088012695313	-221.494857788086	263.1384887695313	-1194.787231445313	-187.2415161132813	241.2268066406251	-1179.869995117188	-225.2782897949219	170.9667053222657	-1140.89794921875	-360.5289916992188	104.2823028564453	-1152.884521484375	-324.2510681152344	97.06034851074222	-1071.65576171875	-424.8269348144532	54.25783538818361	-1094.258056640625	-209.578353881836	52.49782943725587	-1130.253784179688	-217.7128143310547	55.08226776123048	-1169.267211914063	-270.3895874023438	35.25887298583985	-1212.394287109375	-352.8524475097657	611.4470825195314	-708.7962646484376	-287.2727661132813	607.9889526367189	-702.3294067382814	-269.7389526367188	627.0278930664064	-723.1095581054689	-243.6318664550782	544.2659912109376	-674.1370239257814	-153.3120727539063	419.3893432617189	-666.3987426757814	-162.2559661865235	240.0424499511719	-701.3635864257814	-263.5464782714844	210.1029052734376	-668.1765747070314	-226.9173278808594	188.7501525878907	-689.0473022460939	-244.9735870361329	151.5295562744141	-731.6480102539064	-350.7388305664063	106.3459625244141	-703.0221557617189	-311.0692138671876	97.0013122558594	-774.6606445312502	-403.5003967285157	53.3714942932129	-767.0073852539064	-202.4503631591797	50.4160842895508	-707.9737548828126	-214.8973236083985	56.47583007812501	-663.8504028320314	-272.5725402832032	40.55755996704102	-627.5913085937501	
589	2.94	22.81657218933106	1344.807373046875	-875.9711914062502	-115.6427688598633	1294.02880859375	-1010.017272949219	-107.7061309814453	1287.023803710938	-869.9961547851565	-142.7670440673828	1160.688842773438	-940.4737548828127	-323.3076782226563	943.305847167969	-930.1876220703127	-28.79447555541993	1065.149658203125	-938.126403808594	-77.98241424560548	1123.16552734375	-1088.402099609375	-173.5828399658203	1021.31689453125	-1193.252685546875	-192.7955474853516	980.8735961914065	-1173.333740234375	-220.8772583007813	986.1497192382815	-1225.440185546875	-286.2282104492188	970.5695800781252	-1278.473266601563	-346.5578002929688	1003.9892578125	-1252.4638671875	-388.5225524902345	787.8225708007815	-1134.3671875	-383.8318176269532	751.2147216796876	-1191.182006835938	-351.9760742187501	755.3621826171876	-1100.10888671875	-78.70604705810548	1133.5361328125	-805.9621582031252	-208.2237854003907	1087.037109375	-667.2927856445314	-201.961166381836	1035.369506835938	-661.9147949218751	-247.1315155029297	1048.34619140625	-623.5059814453126	-294.1213684082032	987.9943847656252	-589.8153686523439	-347.5296020507813	1019.253295898438	-616.6597290039064	-381.3600769042969	785.8919067382815	-721.1351318359376	-359.3620605468751	750.8595581054689	-667.9378662109376	-342.2022705078126	748.8133544921876	-761.5951538085939	-319.3664550781251	717.3569335937501	-1028.09521484375	-319.8456115722657	717.5938110351564	-828.5432128906252	-421.0464782714845	844.8203735351565	-928.401550292969	-445.3307495117189	819.7363891601565	-954.412292480469	-442.3560791015626	820.1560668945315	-897.5430297851565	-312.8078613281251	549.5967407226564	-1151.2373046875	-231.3692169189454	531.9692382812501	-1172.395751953125	-199.3759460449219	564.0792846679689	-1159.4462890625	-206.0049285888672	475.4978942871095	-1177.25732421875	-148.6582641601563	411.0593872070314	-1175.753784179688	-140.6536254882813	269.2421569824219	-1157.461669921875	-221.8402557373047	264.0714416503907	-1194.767333984375	-187.362045288086	242.4458160400391	-1180.116333007813	-225.7005767822266	171.9726257324219	-1141.052490234375	-360.2526550292969	105.0000991821289	-1152.742065429688	-323.8849182128907	97.91159820556643	-1071.54638671875	-424.2858276367189	55.07693481445314	-1093.704956054688	-209.4384002685547	52.18789672851564	-1130.543823242188	-217.5978393554688	54.99330139160158	-1169.359375	-270.3811645507813	35.2559928894043	-1212.319580078125	-349.2377929687501	616.8496093750001	-708.6238403320314	-283.9485778808594	612.5524902343751	-701.8419189453126	-265.7889709472657	631.3133544921876	-722.4177856445314	-241.5073394775391	547.5149536132814	-673.7369384765626	-153.2605743408203	420.7640380859376	-666.3982543945314	-162.1690979003907	241.1180114746094	-701.0476074218751	-263.4302062988282	210.8098449707032	-668.3065185546876	-226.7396240234376	189.4823913574219	-688.9035034179689	-244.5909118652344	152.2859802246094	-731.5543212890626	-350.3594360351563	106.9827346801758	-703.2270507812501	-310.3754272460938	97.61439514160159	-774.5769042968752	-402.8995056152345	54.10628890991212	-767.4653320312501	-202.1220092773438	50.34171295166017	-707.8441772460939	-214.5368041992188	56.47573471069337	-663.7604370117189	-272.4741821289063	40.5824317932129	-627.6616210937501	
590	2.945	16.0609130859375	1355.276000976563	-873.2749633789065	-120.0064315795899	1309.50341796875	-1010.236083984375	-112.0621948242188	1302.357666015625	-870.1689453125002	-146.7457275390625	1174.81103515625	-940.979431152344	-323.0816650390626	953.2707519531252	-930.5214843750002	-30.54983139038087	1081.777465820313	-938.1374511718752	-80.81967163085939	1138.907592773438	-1088.455932617188	-174.8740692138672	1035.133056640625	-1193.140991210938	-192.384262084961	994.8628540039065	-1173.705322265625	-221.8282928466797	999.156677246094	-1224.805541992188	-286.5801391601563	982.531921386719	-1278.174072265625	-347.4768981933594	1014.829711914063	-1251.9404296875	-385.0289001464845	797.5687255859377	-1134.1083984375	-380.3196716308594	761.3364257812501	-1191.097045898438	-348.1423950195313	765.1423950195314	-1100.015502929688	-82.37517547607423	1149.799682617188	-806.7661132812502	-211.3016510009766	1101.437377929688	-668.2429199218751	-203.9600219726563	1049.92431640625	-662.2539672851564	-250.5090637207032	1062.5009765625	-625.0394287109376	-295.2567138671876	1000.8095703125	-590.5586547851564	-349.0845947265626	1030.3955078125	-617.6620483398439	-376.8810729980469	796.2202148437502	-722.3117065429689	-354.8399658203126	762.0277709960939	-668.2065429687501	-340.7446594238282	757.3099975585939	-763.6790771484376	-315.3607482910157	727.1821899414064	-1028.188232421875	-316.0354919433594	726.9166259765626	-829.013610839844	-418.6946411132814	853.446228027344	-928.6319580078127	-442.0723266601564	827.578063964844	-954.689636230469	-439.6893920898439	828.6475830078127	-897.8343505859377	-310.5421447753907	554.4828491210939	-1151.609497070313	-229.3620605468751	535.0440063476564	-1172.984497070313	-196.6663360595704	566.7141113281251	-1160.287841796875	-205.1970214843751	478.2273559570314	-1177.35986328125	-148.8512573242188	412.663055419922	-1175.872680664063	-141.1429138183594	270.7966918945313	-1157.805908203125	-222.1729431152344	265.6041870117188	-1194.504272460938	-187.4584503173828	243.5158386230469	-1180.111328125	-227.0583801269532	176.8843994140625	-1142.768676757813	-359.9166870117188	105.7989501953125	-1152.626586914063	-323.3834838867188	98.66056060791018	-1071.535034179688	-423.7224426269532	55.97450637817384	-1093.167846679688	-209.2854309082032	51.97840499877931	-1130.668334960938	-217.4593658447266	54.90406417846681	-1169.540771484375	-270.2890625000001	35.29773330688477	-1212.233276367188	-345.9151916503907	622.8762207031251	-708.7312011718751	-280.5989379882813	617.1207275390626	-701.2144165039064	-261.8995971679688	635.6091918945314	-721.4134521484376	-239.5642852783204	550.9976196289064	-673.4908447265626	-153.6716766357422	422.5156860351564	-666.1108398437501	-162.2784881591797	242.5107727050782	-701.0023803710939	-263.4234313964844	211.7809143066407	-668.4409179687501	-226.605941772461	190.3348388671875	-688.7766723632814	-243.8742828369141	153.1775207519532	-731.4130859375001	-349.9115905761719	107.6443328857422	-703.3389282226564	-309.9192810058594	98.31947326660159	-774.6704711914065	-402.413055419922	55.01451873779298	-767.7673950195314	-201.862289428711	50.31345367431642	-707.7079467773439	-214.3034362792969	56.48734664916994	-663.6807250976564	-272.3992309570313	40.59125518798829	-627.8114624023439	
